<svg width="37" height="36" viewBox="0 0 37 36" fill="none" xmlns="http://www.w3.org/2000/svg">
<path fill-rule="evenodd" clip-rule="evenodd" d="M18.1133 8.52422C16.1239 8.52422 14.5134 10.169 14.5134 12.1944C14.5134 14.2192 16.1233 15.8611 18.1133 15.8611C20.1035 15.8611 21.7132 14.2223 21.7132 12.1944C21.7132 10.1659 20.103 8.52422 18.1133 8.52422ZM13.5087 12.1944C13.5087 9.60388 15.5685 7.5 18.1133 7.5C20.6578 7.5 22.7178 9.6002 22.7178 12.1944C22.7178 14.7891 20.6573 16.8853 18.1133 16.8853C15.569 16.8853 13.5087 14.7854 13.5087 12.1944ZM7.58811 11.4159C6.14762 11.4159 4.97943 12.6069 4.97943 14.0755C4.97943 15.5441 6.14762 16.7351 7.58811 16.7351C9.02861 16.7351 10.1968 15.5441 10.1968 14.0755C10.1968 12.6069 9.02861 11.4159 7.58811 11.4159ZM3.9748 14.0755C3.9748 12.0413 5.59278 10.3917 7.58811 10.3917C9.58345 10.3917 11.2014 12.0413 11.2014 14.0755C11.2014 16.1098 9.58345 17.7593 7.58811 17.7593C5.59278 17.7593 3.9748 16.1098 3.9748 14.0755ZM28.6619 11.4159C27.2214 11.4159 26.0532 12.6069 26.0532 14.0755C26.0532 15.5441 27.2214 16.7351 28.6619 16.7351C30.1024 16.7351 31.2706 15.5441 31.2706 14.0755C31.2706 12.6069 30.1024 11.4159 28.6619 11.4159ZM25.0486 14.0755C25.0486 12.0413 26.6665 10.3917 28.6619 10.3917C30.6572 10.3917 32.2752 12.0413 32.2752 14.0755C32.2752 16.1098 30.6572 17.7593 28.6619 17.7593C26.6665 17.7593 25.0486 16.1098 25.0486 14.0755ZM18.0731 18.8416C14.0121 18.8416 10.756 22.4236 10.756 26.6188V27.4758H25.4705V26.3935C25.4705 22.2204 22.1586 18.8416 18.0731 18.8416ZM9.75142 26.6188C9.75142 21.9102 13.4073 17.8173 18.0731 17.8173C22.7145 17.8173 26.4751 21.6559 26.4751 26.3935V28.5H9.75142V26.6188Z" fill="#555555"/>
<path d="M7.6283 26.1067H2.12963V25.5844C2.12963 22.399 4.56418 19.8112 7.55463 19.8112C8.34159 19.8112 9.11515 19.9921 9.82844 20.3267C10.0394 20.0433 10.2604 19.7736 10.4948 19.5141C9.58398 19.0396 8.57935 18.7869 7.55128 18.7869C4.00829 18.7835 1.125 21.8323 1.125 25.581V27.1275H7.58142C7.58142 26.7827 7.59816 26.4413 7.63165 26.1033L7.6283 26.1067Z" fill="#555555"/>
<path d="M28.6317 18.7835C27.6439 18.7835 26.6694 19.0362 25.7786 19.5073C26.0164 19.7668 26.2407 20.0331 26.4517 20.3165C27.1415 19.9887 27.8816 19.8078 28.6317 19.8078C31.659 19.8078 34.1204 22.3205 34.1204 25.4103V26.1067H28.615C28.6317 26.3662 28.6451 26.6257 28.6451 26.8886V27.131H35.125V25.4103C35.125 21.7572 32.2116 18.7835 28.6317 18.7835Z" fill="#555555"/>
</svg>
