<svg width="37" height="36" viewBox="0 0 37 36" fill="none" xmlns="http://www.w3.org/2000/svg">
<path fill-rule="evenodd" clip-rule="evenodd" d="M8.12497 16C6.74441 16 5.62497 17.1192 5.62497 18.5C5.62497 19.8805 6.74437 20.9997 8.12497 20.9997C9.50594 20.9997 10.6253 19.8804 10.6253 18.5C10.6253 17.1192 9.5059 16 8.12497 16ZM4.62497 18.5C4.62497 16.5668 6.1922 15 8.12497 15C10.058 15 11.6253 16.5668 11.6253 18.5C11.6253 20.4329 10.058 21.9997 8.12497 21.9997C6.19223 21.9997 4.62497 20.4329 4.62497 18.5ZM19.125 16C17.7444 16 16.625 17.1192 16.625 18.5C16.625 19.8805 17.7444 20.9997 19.125 20.9997C20.5059 20.9997 21.625 19.8805 21.625 18.5C21.625 17.1191 20.5058 16 19.125 16ZM15.625 18.5C15.625 16.5668 17.1922 15 19.125 15C21.0581 15 22.625 16.5669 22.625 18.5C22.625 20.4328 21.0581 21.9997 19.125 21.9997C17.1922 21.9997 15.625 20.4329 15.625 18.5ZM30.125 16C28.7444 16 27.625 17.1192 27.625 18.5C27.625 19.8805 28.7444 20.9997 30.125 20.9997C31.5059 20.9997 32.625 19.8805 32.625 18.5C32.625 17.1191 31.5058 16 30.125 16ZM26.625 18.5C26.625 16.5668 28.1922 15 30.125 15C32.0581 15 33.625 16.5669 33.625 18.5C33.625 20.4328 32.0581 21.9997 30.125 21.9997C28.1922 21.9997 26.625 20.4329 26.625 18.5Z" fill="#555555"/>
</svg>
