<svg width="37" height="36" viewBox="0 0 37 36" fill="none" xmlns="http://www.w3.org/2000/svg">
<path fill-rule="evenodd" clip-rule="evenodd" d="M30.5417 22.3337H27.875V26.334C27.875 26.5897 27.7453 26.822 27.5177 26.9353C27.4237 26.9823 27.3233 27.0053 27.224 27.0053C27.0817 27.0053 26.9407 26.9583 26.822 26.867L20.8747 22.3337H12.5417C12.085 22.3337 11.5417 21.7943 11.5417 21.3337V8.00033C11.5417 7.54 12.085 7 12.5417 7H30.5417C30.998 7 31.5413 7.54 31.5413 8.00033V21.3337C31.5413 21.7943 30.998 22.3337 30.5417 22.3337ZM12.5417 8.00033V21.3337H21.208L26.8747 25.667V21.3337H30.5417L30.548 8.00533L12.5417 8.00033ZM6.87501 25.667H9.54134V28.3337L12.5417 25.667H18.5413V23.3337H19.5417V25.667C19.5417 26.1253 19.0067 26.667 18.5413 26.667H12.8747L9.60534 29.4947C9.47934 29.6067 9.31734 29.6657 9.15367 29.6657C9.06134 29.6657 8.96801 29.6467 8.88034 29.6087C8.63701 29.5013 8.54167 29.2627 8.54167 29.0003V26.667H6.87501C6.41001 26.667 5.87501 26.1253 5.87501 25.667V16.667C5.87501 16.2087 6.41001 15.667 6.87501 15.667H10.5413V16.667H6.87501V25.667Z" fill="#555555"/>
</svg>
